<mxfile host="app.diagrams.net" modified="2021-11-03T04:37:14.962Z" agent="5.0 (X11; Linux x86_64) AppleWebKit/537.36 (KHTML, like Gecko) Chrome/94.0.4606.71 Safari/537.36" etag="RAYINmYKyaZ-dzZEPyLH" version="15.6.6" type="github">
  <diagram id="eX1bwtQ_Un_IkeUxFx1G" name="Page-1">
    <mxGraphModel dx="806" dy="1935" grid="1" gridSize="10" guides="1" tooltips="1" connect="1" arrows="1" fold="1" page="1" pageScale="1" pageWidth="827" pageHeight="1169" math="0" shadow="0">
      <root>
        <mxCell id="0" />
        <mxCell id="1" parent="0" />
        <mxCell id="u9hF4vmQfbYm9YA1ZIXY-3" value="" style="edgeStyle=orthogonalEdgeStyle;rounded=0;orthogonalLoop=1;jettySize=auto;html=1;" edge="1" parent="1" source="u9hF4vmQfbYm9YA1ZIXY-1" target="u9hF4vmQfbYm9YA1ZIXY-2">
          <mxGeometry relative="1" as="geometry" />
        </mxCell>
        <mxCell id="u9hF4vmQfbYm9YA1ZIXY-5" value="" style="edgeStyle=orthogonalEdgeStyle;rounded=0;orthogonalLoop=1;jettySize=auto;html=1;fontColor=default;" edge="1" parent="1" source="u9hF4vmQfbYm9YA1ZIXY-1" target="u9hF4vmQfbYm9YA1ZIXY-4">
          <mxGeometry relative="1" as="geometry" />
        </mxCell>
        <mxCell id="u9hF4vmQfbYm9YA1ZIXY-22" value="" style="edgeStyle=orthogonalEdgeStyle;rounded=0;orthogonalLoop=1;jettySize=auto;html=1;labelBackgroundColor=default;fontColor=default;strokeColor=default;" edge="1" parent="1" source="u9hF4vmQfbYm9YA1ZIXY-1" target="u9hF4vmQfbYm9YA1ZIXY-21">
          <mxGeometry relative="1" as="geometry" />
        </mxCell>
        <mxCell id="u9hF4vmQfbYm9YA1ZIXY-1" value="Producer" style="ellipse;whiteSpace=wrap;html=1;aspect=fixed;fillColor=default;strokeColor=default;fontColor=default;" vertex="1" parent="1">
          <mxGeometry x="50" y="330" width="80" height="80" as="geometry" />
        </mxCell>
        <mxCell id="u9hF4vmQfbYm9YA1ZIXY-2" value="Always asynchronous" style="whiteSpace=wrap;html=1;" vertex="1" parent="1">
          <mxGeometry x="30" y="500" width="120" height="60" as="geometry" />
        </mxCell>
        <mxCell id="u9hF4vmQfbYm9YA1ZIXY-7" value="" style="edgeStyle=orthogonalEdgeStyle;rounded=0;orthogonalLoop=1;jettySize=auto;html=1;fontColor=default;strokeColor=default;labelBackgroundColor=default;" edge="1" parent="1" source="u9hF4vmQfbYm9YA1ZIXY-4" target="u9hF4vmQfbYm9YA1ZIXY-6">
          <mxGeometry relative="1" as="geometry">
            <Array as="points">
              <mxPoint x="400" y="370" />
              <mxPoint x="400" y="240" />
            </Array>
          </mxGeometry>
        </mxCell>
        <mxCell id="u9hF4vmQfbYm9YA1ZIXY-11" style="edgeStyle=orthogonalEdgeStyle;rounded=0;orthogonalLoop=1;jettySize=auto;html=1;entryX=0;entryY=0.5;entryDx=0;entryDy=0;fontColor=default;" edge="1" parent="1" source="u9hF4vmQfbYm9YA1ZIXY-4" target="u9hF4vmQfbYm9YA1ZIXY-8">
          <mxGeometry relative="1" as="geometry" />
        </mxCell>
        <mxCell id="u9hF4vmQfbYm9YA1ZIXY-12" style="edgeStyle=orthogonalEdgeStyle;rounded=0;orthogonalLoop=1;jettySize=auto;html=1;entryX=0;entryY=0.5;entryDx=0;entryDy=0;labelBackgroundColor=default;fontColor=default;strokeColor=default;" edge="1" parent="1" source="u9hF4vmQfbYm9YA1ZIXY-4" target="u9hF4vmQfbYm9YA1ZIXY-9">
          <mxGeometry relative="1" as="geometry">
            <Array as="points">
              <mxPoint x="400" y="370" />
              <mxPoint x="400" y="510" />
            </Array>
          </mxGeometry>
        </mxCell>
        <mxCell id="u9hF4vmQfbYm9YA1ZIXY-4" value="Send" style="whiteSpace=wrap;html=1;fillColor=default;strokeColor=default;fontColor=default;" vertex="1" parent="1">
          <mxGeometry x="190" y="340" width="120" height="60" as="geometry" />
        </mxCell>
        <mxCell id="u9hF4vmQfbYm9YA1ZIXY-6" value="Fire-and-forget" style="whiteSpace=wrap;html=1;fillColor=default;strokeColor=default;fontColor=default;" vertex="1" parent="1">
          <mxGeometry x="440" y="210" width="120" height="60" as="geometry" />
        </mxCell>
        <mxCell id="u9hF4vmQfbYm9YA1ZIXY-8" value="Synchronous send&lt;br&gt;Future.get" style="whiteSpace=wrap;html=1;fillColor=default;strokeColor=default;fontColor=default;" vertex="1" parent="1">
          <mxGeometry x="440" y="340" width="120" height="60" as="geometry" />
        </mxCell>
        <mxCell id="u9hF4vmQfbYm9YA1ZIXY-14" value="" style="edgeStyle=orthogonalEdgeStyle;rounded=0;orthogonalLoop=1;jettySize=auto;html=1;labelBackgroundColor=default;fontColor=default;strokeColor=default;" edge="1" parent="1" source="u9hF4vmQfbYm9YA1ZIXY-9" target="u9hF4vmQfbYm9YA1ZIXY-13">
          <mxGeometry relative="1" as="geometry" />
        </mxCell>
        <mxCell id="u9hF4vmQfbYm9YA1ZIXY-9" value="Async send&lt;br&gt;Future with callback" style="whiteSpace=wrap;html=1;fillColor=default;strokeColor=default;fontColor=default;" vertex="1" parent="1">
          <mxGeometry x="440" y="480" width="120" height="60" as="geometry" />
        </mxCell>
        <mxCell id="u9hF4vmQfbYm9YA1ZIXY-16" value="" style="edgeStyle=orthogonalEdgeStyle;rounded=0;orthogonalLoop=1;jettySize=auto;html=1;labelBackgroundColor=default;fontColor=default;strokeColor=default;" edge="1" parent="1" source="u9hF4vmQfbYm9YA1ZIXY-13" target="u9hF4vmQfbYm9YA1ZIXY-15">
          <mxGeometry relative="1" as="geometry" />
        </mxCell>
        <mxCell id="u9hF4vmQfbYm9YA1ZIXY-19" style="edgeStyle=orthogonalEdgeStyle;rounded=0;orthogonalLoop=1;jettySize=auto;html=1;labelBackgroundColor=default;fontColor=default;strokeColor=default;" edge="1" parent="1" source="u9hF4vmQfbYm9YA1ZIXY-13" target="u9hF4vmQfbYm9YA1ZIXY-18">
          <mxGeometry relative="1" as="geometry" />
        </mxCell>
        <mxCell id="u9hF4vmQfbYm9YA1ZIXY-13" value="The callbacks execute in the producer&#39;s main thread" style="whiteSpace=wrap;html=1;fillColor=default;strokeColor=default;fontColor=default;" vertex="1" parent="1">
          <mxGeometry x="440" y="620" width="120" height="60" as="geometry" />
        </mxCell>
        <mxCell id="u9hF4vmQfbYm9YA1ZIXY-15" value="Guarantee order of msg" style="whiteSpace=wrap;html=1;fillColor=default;strokeColor=default;fontColor=default;" vertex="1" parent="1">
          <mxGeometry x="350" y="760" width="120" height="60" as="geometry" />
        </mxCell>
        <mxCell id="u9hF4vmQfbYm9YA1ZIXY-18" value="Have to be fast, because callback will block producer" style="whiteSpace=wrap;html=1;fillColor=default;strokeColor=default;fontColor=default;" vertex="1" parent="1">
          <mxGeometry x="530" y="760" width="120" height="60" as="geometry" />
        </mxCell>
        <mxCell id="u9hF4vmQfbYm9YA1ZIXY-24" value="" style="edgeStyle=orthogonalEdgeStyle;rounded=0;orthogonalLoop=1;jettySize=auto;html=1;labelBackgroundColor=default;fontColor=default;strokeColor=default;" edge="1" parent="1" source="u9hF4vmQfbYm9YA1ZIXY-21" target="u9hF4vmQfbYm9YA1ZIXY-23">
          <mxGeometry relative="1" as="geometry" />
        </mxCell>
        <mxCell id="u9hF4vmQfbYm9YA1ZIXY-28" style="edgeStyle=orthogonalEdgeStyle;rounded=0;orthogonalLoop=1;jettySize=auto;html=1;entryX=0;entryY=0.5;entryDx=0;entryDy=0;labelBackgroundColor=default;fontColor=default;strokeColor=default;" edge="1" parent="1" source="u9hF4vmQfbYm9YA1ZIXY-21" target="u9hF4vmQfbYm9YA1ZIXY-27">
          <mxGeometry relative="1" as="geometry" />
        </mxCell>
        <mxCell id="u9hF4vmQfbYm9YA1ZIXY-21" value="Config" style="whiteSpace=wrap;html=1;fillColor=default;strokeColor=default;fontColor=default;" vertex="1" parent="1">
          <mxGeometry x="30" y="30" width="120" height="60" as="geometry" />
        </mxCell>
        <mxCell id="u9hF4vmQfbYm9YA1ZIXY-26" value="" style="edgeStyle=orthogonalEdgeStyle;rounded=0;orthogonalLoop=1;jettySize=auto;html=1;labelBackgroundColor=default;fontColor=default;strokeColor=default;" edge="1" parent="1" source="u9hF4vmQfbYm9YA1ZIXY-23" target="u9hF4vmQfbYm9YA1ZIXY-25">
          <mxGeometry relative="1" as="geometry" />
        </mxCell>
        <mxCell id="u9hF4vmQfbYm9YA1ZIXY-23" value="Cliend.id" style="whiteSpace=wrap;html=1;fillColor=default;strokeColor=default;fontColor=default;" vertex="1" parent="1">
          <mxGeometry x="230" y="30" width="120" height="60" as="geometry" />
        </mxCell>
        <mxCell id="u9hF4vmQfbYm9YA1ZIXY-25" value="logical identifier for the client" style="whiteSpace=wrap;html=1;fillColor=default;strokeColor=default;fontColor=default;" vertex="1" parent="1">
          <mxGeometry x="430" y="30" width="120" height="60" as="geometry" />
        </mxCell>
        <mxCell id="u9hF4vmQfbYm9YA1ZIXY-30" value="" style="edgeStyle=orthogonalEdgeStyle;rounded=0;orthogonalLoop=1;jettySize=auto;html=1;labelBackgroundColor=default;fontColor=default;strokeColor=default;" edge="1" parent="1" source="u9hF4vmQfbYm9YA1ZIXY-27" target="u9hF4vmQfbYm9YA1ZIXY-29">
          <mxGeometry relative="1" as="geometry" />
        </mxCell>
        <mxCell id="u9hF4vmQfbYm9YA1ZIXY-32" value="" style="edgeStyle=orthogonalEdgeStyle;rounded=0;orthogonalLoop=1;jettySize=auto;html=1;labelBackgroundColor=default;fontColor=default;strokeColor=default;" edge="1" parent="1" source="u9hF4vmQfbYm9YA1ZIXY-27" target="u9hF4vmQfbYm9YA1ZIXY-31">
          <mxGeometry relative="1" as="geometry" />
        </mxCell>
        <mxCell id="u9hF4vmQfbYm9YA1ZIXY-34" style="edgeStyle=orthogonalEdgeStyle;rounded=0;orthogonalLoop=1;jettySize=auto;html=1;entryX=0;entryY=0.5;entryDx=0;entryDy=0;labelBackgroundColor=default;fontColor=default;strokeColor=default;" edge="1" parent="1" source="u9hF4vmQfbYm9YA1ZIXY-27" target="u9hF4vmQfbYm9YA1ZIXY-33">
          <mxGeometry relative="1" as="geometry" />
        </mxCell>
        <mxCell id="u9hF4vmQfbYm9YA1ZIXY-40" style="edgeStyle=orthogonalEdgeStyle;rounded=0;orthogonalLoop=1;jettySize=auto;html=1;exitX=1;exitY=0.5;exitDx=0;exitDy=0;entryX=0;entryY=0.5;entryDx=0;entryDy=0;labelBackgroundColor=default;fontColor=default;strokeColor=default;" edge="1" parent="1" source="u9hF4vmQfbYm9YA1ZIXY-27" target="u9hF4vmQfbYm9YA1ZIXY-39">
          <mxGeometry relative="1" as="geometry" />
        </mxCell>
        <mxCell id="u9hF4vmQfbYm9YA1ZIXY-27" value="acks" style="whiteSpace=wrap;html=1;fillColor=default;strokeColor=default;fontColor=default;" vertex="1" parent="1">
          <mxGeometry x="230" y="-60" width="120" height="60" as="geometry" />
        </mxCell>
        <mxCell id="u9hF4vmQfbYm9YA1ZIXY-44" value="" style="edgeStyle=orthogonalEdgeStyle;rounded=0;orthogonalLoop=1;jettySize=auto;html=1;labelBackgroundColor=default;fontColor=default;strokeColor=default;" edge="1" parent="1" source="u9hF4vmQfbYm9YA1ZIXY-29" target="u9hF4vmQfbYm9YA1ZIXY-43">
          <mxGeometry relative="1" as="geometry" />
        </mxCell>
        <mxCell id="u9hF4vmQfbYm9YA1ZIXY-29" value="control how many partition rep must receive the record -&amp;gt; successful" style="whiteSpace=wrap;html=1;fillColor=default;strokeColor=default;fontColor=default;" vertex="1" parent="1">
          <mxGeometry x="230" y="-200" width="120" height="60" as="geometry" />
        </mxCell>
        <mxCell id="u9hF4vmQfbYm9YA1ZIXY-36" value="" style="edgeStyle=orthogonalEdgeStyle;rounded=0;orthogonalLoop=1;jettySize=auto;html=1;labelBackgroundColor=default;fontColor=default;strokeColor=default;" edge="1" parent="1" source="u9hF4vmQfbYm9YA1ZIXY-31" target="u9hF4vmQfbYm9YA1ZIXY-35">
          <mxGeometry relative="1" as="geometry" />
        </mxCell>
        <mxCell id="u9hF4vmQfbYm9YA1ZIXY-31" value="acks = 0" style="whiteSpace=wrap;html=1;fillColor=default;strokeColor=default;fontColor=default;" vertex="1" parent="1">
          <mxGeometry x="430" y="-60" width="120" height="60" as="geometry" />
        </mxCell>
        <mxCell id="u9hF4vmQfbYm9YA1ZIXY-38" value="" style="edgeStyle=orthogonalEdgeStyle;rounded=0;orthogonalLoop=1;jettySize=auto;html=1;labelBackgroundColor=default;fontColor=default;strokeColor=default;" edge="1" parent="1" source="u9hF4vmQfbYm9YA1ZIXY-33" target="u9hF4vmQfbYm9YA1ZIXY-37">
          <mxGeometry relative="1" as="geometry" />
        </mxCell>
        <mxCell id="u9hF4vmQfbYm9YA1ZIXY-33" value="acks=1" style="whiteSpace=wrap;html=1;fillColor=default;strokeColor=default;fontColor=default;" vertex="1" parent="1">
          <mxGeometry x="430" y="-170" width="120" height="60" as="geometry" />
        </mxCell>
        <mxCell id="u9hF4vmQfbYm9YA1ZIXY-35" value="no waiting" style="whiteSpace=wrap;html=1;fillColor=default;strokeColor=default;fontColor=default;" vertex="1" parent="1">
          <mxGeometry x="630" y="-60" width="120" height="60" as="geometry" />
        </mxCell>
        <mxCell id="u9hF4vmQfbYm9YA1ZIXY-37" value="leader replica received the msg" style="whiteSpace=wrap;html=1;fillColor=default;strokeColor=default;fontColor=default;" vertex="1" parent="1">
          <mxGeometry x="630" y="-170" width="120" height="60" as="geometry" />
        </mxCell>
        <mxCell id="u9hF4vmQfbYm9YA1ZIXY-42" value="" style="edgeStyle=orthogonalEdgeStyle;rounded=0;orthogonalLoop=1;jettySize=auto;html=1;labelBackgroundColor=default;fontColor=default;strokeColor=default;" edge="1" parent="1" source="u9hF4vmQfbYm9YA1ZIXY-39" target="u9hF4vmQfbYm9YA1ZIXY-41">
          <mxGeometry relative="1" as="geometry" />
        </mxCell>
        <mxCell id="u9hF4vmQfbYm9YA1ZIXY-39" value="acks=all" style="whiteSpace=wrap;html=1;fillColor=default;strokeColor=default;fontColor=default;" vertex="1" parent="1">
          <mxGeometry x="430" y="-280" width="120" height="60" as="geometry" />
        </mxCell>
        <mxCell id="u9hF4vmQfbYm9YA1ZIXY-41" value="all &lt;b&gt;in-sync &lt;/b&gt;replica received msg" style="whiteSpace=wrap;html=1;fillColor=default;strokeColor=default;fontColor=default;" vertex="1" parent="1">
          <mxGeometry x="630" y="-280" width="120" height="60" as="geometry" />
        </mxCell>
        <mxCell id="u9hF4vmQfbYm9YA1ZIXY-46" value="" style="edgeStyle=orthogonalEdgeStyle;rounded=0;orthogonalLoop=1;jettySize=auto;html=1;labelBackgroundColor=default;fontColor=default;strokeColor=default;" edge="1" parent="1" source="u9hF4vmQfbYm9YA1ZIXY-43" target="u9hF4vmQfbYm9YA1ZIXY-45">
          <mxGeometry relative="1" as="geometry" />
        </mxCell>
        <mxCell id="u9hF4vmQfbYm9YA1ZIXY-43" value="trade off bw reliability and producer latency" style="whiteSpace=wrap;html=1;fillColor=default;strokeColor=default;fontColor=default;" vertex="1" parent="1">
          <mxGeometry x="230" y="-340" width="120" height="60" as="geometry" />
        </mxCell>
        <mxCell id="u9hF4vmQfbYm9YA1ZIXY-48" value="" style="edgeStyle=orthogonalEdgeStyle;rounded=0;orthogonalLoop=1;jettySize=auto;html=1;labelBackgroundColor=default;fontColor=default;strokeColor=default;" edge="1" parent="1" source="u9hF4vmQfbYm9YA1ZIXY-45" target="u9hF4vmQfbYm9YA1ZIXY-47">
          <mxGeometry relative="1" as="geometry" />
        </mxCell>
        <mxCell id="u9hF4vmQfbYm9YA1ZIXY-45" value="end to end latency&lt;br&gt;is identical for 3 options" style="whiteSpace=wrap;html=1;fillColor=default;strokeColor=default;fontColor=default;" vertex="1" parent="1">
          <mxGeometry x="230" y="-480" width="120" height="60" as="geometry" />
        </mxCell>
        <mxCell id="u9hF4vmQfbYm9YA1ZIXY-47" value="cuz only after msg is received by all-insync replicate, consumer can consume this msg" style="whiteSpace=wrap;html=1;fillColor=default;strokeColor=default;fontColor=default;" vertex="1" parent="1">
          <mxGeometry x="430" y="-485" width="120" height="70" as="geometry" />
        </mxCell>
      </root>
    </mxGraphModel>
  </diagram>
</mxfile>
